<mxfile host="app.diagrams.net" modified="2022-10-18T01:48:12.968Z" agent="5.0 (Windows NT 10.0; Win64; x64) AppleWebKit/537.36 (KHTML, like Gecko) Chrome/106.0.0.0 Safari/537.36" etag="_eGoSVT-ttG_eS0QVG_d" version="20.4.1" type="github">
  <diagram id="BRv2JVXda7O6iniTX5KX" name="Page-1">
    <mxGraphModel dx="1338" dy="547" grid="1" gridSize="10" guides="1" tooltips="1" connect="1" arrows="1" fold="1" page="1" pageScale="1" pageWidth="850" pageHeight="1100" math="0" shadow="0">
      <root>
        <mxCell id="0" />
        <mxCell id="1" parent="0" />
        <mxCell id="_Uy3uJfhsu_lk7YAuxN1-1" value="" style="ellipse;whiteSpace=wrap;html=1;" vertex="1" parent="1">
          <mxGeometry x="320" y="50" width="70" height="50" as="geometry" />
        </mxCell>
        <mxCell id="_Uy3uJfhsu_lk7YAuxN1-2" value="" style="ellipse;whiteSpace=wrap;html=1;" vertex="1" parent="1">
          <mxGeometry x="260" y="160" width="70" height="50" as="geometry" />
        </mxCell>
        <mxCell id="_Uy3uJfhsu_lk7YAuxN1-3" value="" style="ellipse;whiteSpace=wrap;html=1;" vertex="1" parent="1">
          <mxGeometry x="470" y="160" width="70" height="50" as="geometry" />
        </mxCell>
        <mxCell id="_Uy3uJfhsu_lk7YAuxN1-4" value="" style="ellipse;whiteSpace=wrap;html=1;aspect=fixed;" vertex="1" parent="1">
          <mxGeometry x="280" y="330" width="20" height="20" as="geometry" />
        </mxCell>
        <mxCell id="_Uy3uJfhsu_lk7YAuxN1-5" value="" style="ellipse;whiteSpace=wrap;html=1;aspect=fixed;" vertex="1" parent="1">
          <mxGeometry x="370" y="330" width="20" height="20" as="geometry" />
        </mxCell>
        <mxCell id="_Uy3uJfhsu_lk7YAuxN1-6" value="" style="ellipse;whiteSpace=wrap;html=1;aspect=fixed;" vertex="1" parent="1">
          <mxGeometry x="450" y="330" width="20" height="20" as="geometry" />
        </mxCell>
        <mxCell id="_Uy3uJfhsu_lk7YAuxN1-7" value="" style="ellipse;whiteSpace=wrap;html=1;aspect=fixed;" vertex="1" parent="1">
          <mxGeometry x="530" y="330" width="20" height="20" as="geometry" />
        </mxCell>
        <mxCell id="_Uy3uJfhsu_lk7YAuxN1-11" value="" style="ellipse;whiteSpace=wrap;html=1;aspect=fixed;" vertex="1" parent="1">
          <mxGeometry x="100" y="175" width="20" height="20" as="geometry" />
        </mxCell>
        <mxCell id="_Uy3uJfhsu_lk7YAuxN1-12" value="1" style="text;html=1;strokeColor=none;fillColor=none;align=center;verticalAlign=middle;whiteSpace=wrap;rounded=0;" vertex="1" parent="1">
          <mxGeometry x="260" y="360" width="60" height="30" as="geometry" />
        </mxCell>
        <mxCell id="_Uy3uJfhsu_lk7YAuxN1-13" value="x1" style="text;html=1;strokeColor=none;fillColor=none;align=center;verticalAlign=middle;whiteSpace=wrap;rounded=0;" vertex="1" parent="1">
          <mxGeometry x="350" y="360" width="60" height="30" as="geometry" />
        </mxCell>
        <mxCell id="_Uy3uJfhsu_lk7YAuxN1-14" value="x2" style="text;html=1;strokeColor=none;fillColor=none;align=center;verticalAlign=middle;whiteSpace=wrap;rounded=0;" vertex="1" parent="1">
          <mxGeometry x="430" y="360" width="60" height="30" as="geometry" />
        </mxCell>
        <mxCell id="_Uy3uJfhsu_lk7YAuxN1-15" value="x3" style="text;html=1;strokeColor=none;fillColor=none;align=center;verticalAlign=middle;whiteSpace=wrap;rounded=0;" vertex="1" parent="1">
          <mxGeometry x="510" y="360" width="60" height="30" as="geometry" />
        </mxCell>
        <mxCell id="_Uy3uJfhsu_lk7YAuxN1-16" value="" style="endArrow=classic;html=1;rounded=0;exitX=1;exitY=0;exitDx=0;exitDy=0;entryX=0.5;entryY=1;entryDx=0;entryDy=0;" edge="1" parent="1" source="_Uy3uJfhsu_lk7YAuxN1-11" target="_Uy3uJfhsu_lk7YAuxN1-1">
          <mxGeometry width="50" height="50" relative="1" as="geometry">
            <mxPoint x="280" y="300" as="sourcePoint" />
            <mxPoint x="330" y="250" as="targetPoint" />
          </mxGeometry>
        </mxCell>
        <mxCell id="_Uy3uJfhsu_lk7YAuxN1-17" value="" style="endArrow=classic;html=1;rounded=0;exitX=0.5;exitY=0;exitDx=0;exitDy=0;" edge="1" parent="1" source="_Uy3uJfhsu_lk7YAuxN1-2">
          <mxGeometry width="50" height="50" relative="1" as="geometry">
            <mxPoint x="280" y="300" as="sourcePoint" />
            <mxPoint x="350" y="100" as="targetPoint" />
          </mxGeometry>
        </mxCell>
        <mxCell id="_Uy3uJfhsu_lk7YAuxN1-18" value="" style="endArrow=classic;html=1;rounded=0;exitX=0.5;exitY=0;exitDx=0;exitDy=0;" edge="1" parent="1" source="_Uy3uJfhsu_lk7YAuxN1-3">
          <mxGeometry width="50" height="50" relative="1" as="geometry">
            <mxPoint x="280" y="300" as="sourcePoint" />
            <mxPoint x="350" y="100" as="targetPoint" />
          </mxGeometry>
        </mxCell>
        <mxCell id="_Uy3uJfhsu_lk7YAuxN1-19" value="1" style="text;html=1;strokeColor=none;fillColor=none;align=center;verticalAlign=middle;whiteSpace=wrap;rounded=0;" vertex="1" parent="1">
          <mxGeometry x="80" y="200" width="60" height="30" as="geometry" />
        </mxCell>
        <mxCell id="_Uy3uJfhsu_lk7YAuxN1-20" value="1" style="text;html=1;strokeColor=none;fillColor=none;align=center;verticalAlign=middle;whiteSpace=wrap;rounded=0;" vertex="1" parent="1">
          <mxGeometry x="300" y="120" width="60" height="30" as="geometry" />
        </mxCell>
        <mxCell id="_Uy3uJfhsu_lk7YAuxN1-21" value="1" style="text;html=1;strokeColor=none;fillColor=none;align=center;verticalAlign=middle;whiteSpace=wrap;rounded=0;" vertex="1" parent="1">
          <mxGeometry x="395" y="110" width="60" height="30" as="geometry" />
        </mxCell>
        <mxCell id="_Uy3uJfhsu_lk7YAuxN1-22" value="-0.5" style="text;html=1;strokeColor=none;fillColor=none;align=center;verticalAlign=middle;whiteSpace=wrap;rounded=0;" vertex="1" parent="1">
          <mxGeometry x="200" y="110" width="60" height="30" as="geometry" />
        </mxCell>
        <mxCell id="_Uy3uJfhsu_lk7YAuxN1-23" value="" style="endArrow=classic;html=1;rounded=0;exitX=0.5;exitY=0;exitDx=0;exitDy=0;" edge="1" parent="1" source="_Uy3uJfhsu_lk7YAuxN1-4">
          <mxGeometry width="50" height="50" relative="1" as="geometry">
            <mxPoint x="280" y="300" as="sourcePoint" />
            <mxPoint x="300" y="210" as="targetPoint" />
          </mxGeometry>
        </mxCell>
        <mxCell id="_Uy3uJfhsu_lk7YAuxN1-24" value="" style="endArrow=classic;html=1;rounded=0;entryX=0.5;entryY=1;entryDx=0;entryDy=0;" edge="1" parent="1" target="_Uy3uJfhsu_lk7YAuxN1-3">
          <mxGeometry width="50" height="50" relative="1" as="geometry">
            <mxPoint x="290" y="330" as="sourcePoint" />
            <mxPoint x="120" y="210" as="targetPoint" />
          </mxGeometry>
        </mxCell>
        <mxCell id="_Uy3uJfhsu_lk7YAuxN1-25" value="" style="endArrow=classic;html=1;rounded=0;entryX=0.5;entryY=1;entryDx=0;entryDy=0;exitX=0;exitY=0;exitDx=0;exitDy=0;" edge="1" parent="1" source="_Uy3uJfhsu_lk7YAuxN1-5" target="_Uy3uJfhsu_lk7YAuxN1-2">
          <mxGeometry width="50" height="50" relative="1" as="geometry">
            <mxPoint x="290" y="330" as="sourcePoint" />
            <mxPoint x="330" y="250" as="targetPoint" />
          </mxGeometry>
        </mxCell>
        <mxCell id="_Uy3uJfhsu_lk7YAuxN1-26" value="" style="endArrow=classic;html=1;rounded=0;entryX=0.5;entryY=1;entryDx=0;entryDy=0;exitX=0.5;exitY=0;exitDx=0;exitDy=0;" edge="1" parent="1" source="_Uy3uJfhsu_lk7YAuxN1-6" target="_Uy3uJfhsu_lk7YAuxN1-2">
          <mxGeometry width="50" height="50" relative="1" as="geometry">
            <mxPoint x="280" y="300" as="sourcePoint" />
            <mxPoint x="330" y="250" as="targetPoint" />
          </mxGeometry>
        </mxCell>
        <mxCell id="_Uy3uJfhsu_lk7YAuxN1-27" value="" style="endArrow=classic;html=1;rounded=0;entryX=0.5;entryY=1;entryDx=0;entryDy=0;exitX=0.5;exitY=0;exitDx=0;exitDy=0;" edge="1" parent="1" source="_Uy3uJfhsu_lk7YAuxN1-6" target="_Uy3uJfhsu_lk7YAuxN1-3">
          <mxGeometry width="50" height="50" relative="1" as="geometry">
            <mxPoint x="470" y="340" as="sourcePoint" />
            <mxPoint x="305" y="220" as="targetPoint" />
          </mxGeometry>
        </mxCell>
        <mxCell id="_Uy3uJfhsu_lk7YAuxN1-28" value="" style="endArrow=classic;html=1;rounded=0;entryX=0.5;entryY=1;entryDx=0;entryDy=0;exitX=0.5;exitY=0;exitDx=0;exitDy=0;" edge="1" parent="1" source="_Uy3uJfhsu_lk7YAuxN1-7" target="_Uy3uJfhsu_lk7YAuxN1-3">
          <mxGeometry width="50" height="50" relative="1" as="geometry">
            <mxPoint x="470" y="340" as="sourcePoint" />
            <mxPoint x="515" y="220" as="targetPoint" />
          </mxGeometry>
        </mxCell>
        <mxCell id="_Uy3uJfhsu_lk7YAuxN1-29" value="-1.5" style="text;html=1;strokeColor=none;fillColor=none;align=center;verticalAlign=middle;whiteSpace=wrap;rounded=0;" vertex="1" parent="1">
          <mxGeometry x="280" y="260" width="60" height="30" as="geometry" />
        </mxCell>
        <mxCell id="_Uy3uJfhsu_lk7YAuxN1-30" value="1" style="text;html=1;strokeColor=none;fillColor=none;align=center;verticalAlign=middle;whiteSpace=wrap;rounded=0;" vertex="1" parent="1">
          <mxGeometry x="310" y="250" width="60" height="30" as="geometry" />
        </mxCell>
        <mxCell id="_Uy3uJfhsu_lk7YAuxN1-31" value="1" style="text;html=1;strokeColor=none;fillColor=none;align=center;verticalAlign=middle;whiteSpace=wrap;rounded=0;" vertex="1" parent="1">
          <mxGeometry x="340" y="240" width="60" height="30" as="geometry" />
        </mxCell>
        <mxCell id="_Uy3uJfhsu_lk7YAuxN1-32" value="-0.5" style="text;html=1;strokeColor=none;fillColor=none;align=center;verticalAlign=middle;whiteSpace=wrap;rounded=0;" vertex="1" parent="1">
          <mxGeometry x="400" y="250" width="60" height="30" as="geometry" />
        </mxCell>
        <mxCell id="_Uy3uJfhsu_lk7YAuxN1-33" value="1" style="text;html=1;strokeColor=none;fillColor=none;align=center;verticalAlign=middle;whiteSpace=wrap;rounded=0;" vertex="1" parent="1">
          <mxGeometry x="460" y="270" width="60" height="30" as="geometry" />
        </mxCell>
        <mxCell id="_Uy3uJfhsu_lk7YAuxN1-34" value="1" style="text;html=1;strokeColor=none;fillColor=none;align=center;verticalAlign=middle;whiteSpace=wrap;rounded=0;" vertex="1" parent="1">
          <mxGeometry x="510" y="270" width="60" height="30" as="geometry" />
        </mxCell>
      </root>
    </mxGraphModel>
  </diagram>
</mxfile>
